<svg xmlns="http://www.w3.org/2000/svg" width="48" height="48" viewBox="0 0 1024 1024" fill="#777"><path d="M0 0h42.667v213.333h554.667v-170.667h-554.667v-42.667h597.333v256h-640zm768 0h256v256h-256v-213.333h42.667v170.667h170.667v-170.667h-213.333zm-768 384h256v42.859l-213.333-.192v554.667h170.667v-554.667h42.667v597.333h-256zm384 0h640v256h-640zm0 384h256v44.704l-213.333-2.037v170.667h170.667v-170.667h42.667v213.333h-256zm384 0h256v47.766l-213.333-5.1v170.667h170.667v-170.667h42.667v213.333h-256z"/></svg>